<?xml version="1.0" encoding="UTF-8" standalone="no"?>
<!-- Created with Inkscape (http://www.inkscape.org/) -->

<svg
   xmlns:dc="http://purl.org/dc/elements/1.1/"
   xmlns:cc="http://creativecommons.org/ns#"
   xmlns:rdf="http://www.w3.org/1999/02/22-rdf-syntax-ns#"
   xmlns:svg="http://www.w3.org/2000/svg"
   xmlns="http://www.w3.org/2000/svg"
   xmlns:sodipodi="http://sodipodi.sourceforge.net/DTD/sodipodi-0.dtd"
   xmlns:inkscape="http://www.inkscape.org/namespaces/inkscape"
   id="Layer_1"
   xml:space="preserve"
   version="1.0"
   viewBox="0 0 149.4702 110.4312"
   inkscape:version="0.48.5 r10040"
   width="100%"
   height="100%"
   sodipodi:docname="CarbonNYC_NEW_Exclamation.svg"><defs
   id="defs3022" /><sodipodi:namedview
   pagecolor="#ffffff"
   bordercolor="#666666"
   borderopacity="1"
   objecttolerance="10"
   gridtolerance="10"
   guidetolerance="10"
   inkscape:pageopacity="0"
   inkscape:pageshadow="2"
   inkscape:window-width="1366"
   inkscape:window-height="706"
   id="namedview3020"
   showgrid="false"
   inkscape:zoom="4.6997588"
   inkscape:cx="74.7351"
   inkscape:cy="55.2156"
   inkscape:window-x="-8"
   inkscape:window-y="-8"
   inkscape:window-maximized="1"
   inkscape:current-layer="g249" />
<filter
   id="AI_Shadow_1"
   filterUnits="objectBoundingBox">
	<feGaussianBlur
   id="feGaussianBlur6"
   result="blur"
   stdDeviation="2"
   in="SourceAlpha" />
	<feOffset
   id="feOffset8"
   result="offsetBlurredAlpha"
   dy="4"
   dx="4"
   in="blur" />
	<feMerge
   id="feMerge10">
		<feMergeNode
   id="feMergeNode12"
   in="offsetBlurredAlpha" />
		<feMergeNode
   id="feMergeNode14"
   in="SourceGraphic" />
	</feMerge>
</filter>
<g
   id="g249"
   style="filter:url(#AI_Shadow_1)"
   transform="matrix(.94521 0 0 .93511 2.0474 2.5593)">
	<path
   id="path251"
   style="fill:#ffffff;stroke:#ec2627;stroke-width:2.5"
   d="m 135.1776,103.83693 c 0.9301,-1.65162 1.83244,-4.395838 0.8448,-8.102976 -0.002,-0.01021 -0.007,-0.01899 -0.01,-0.02926 l 10.40501,-11.791354 c 0.38981,-0.425918 0.7371,-0.908709 1.04107,-1.447926 1.19112,-2.095479 1.41886,-4.621331 0.63331,-7.115838 -0.23693,-0.748792 -0.5529,-1.474788 -0.9429,-2.157583 -0.62,-1.08547 -1.42403,-2.063538 -2.40642,-2.925854 -1.0708,-0.939111 -2.07963,-1.680942 -3.06659,-2.260469 -2.20736,-1.302937 -4.3543,-1.98752 -6.42231,-2.122906 -0.01,-0.0175 -0.0112,-0.02846 -0.0212,-0.04596 -0.695,-1.216779 -1.79542,-2.161944 -3.11445,-2.641051 -0.5133,-0.190664 -1.05371,-0.412186 -1.59201,-0.646614 -0.50944,-0.227917 -0.96434,-0.464328 -1.3454,-0.685475 -0.67328,-0.400768 -1.34701,-0.836276 -2.00916,-1.313554 -0.70858,-0.508552 -1.33846,-0.981323 -1.88194,-1.422822 -0.64803,-0.520543 -1.39471,-0.901807 -2.17921,-1.109272 -0.49751,-0.515014 -1.08211,-0.932512 -1.73967,-1.239735 -2.60281,-1.216888 -5.31105,-2.652369 -8.04317,-4.267658 -1.56938,-0.923605 -2.92867,-1.757383 -4.16606,-2.553749 -1.18167,-0.758845 -2.32838,-1.554445 -3.40668,-2.378292 -0.40707,-0.308678 -0.84855,-0.557588 -1.31129,-0.749741 -0.38108,-0.305171 -0.79763,-0.560459 -1.24988,-0.762238 -2.18754,-0.981859 -4.44238,-2.155543 -6.707749,-3.487656 -2.543595,-1.501219 -4.924967,-3.064429 -7.071279,-4.6481 -0.702011,-0.517049 -1.49653,-0.85406 -2.326432,-1.021024 -0.470878,-0.550392 -1.036211,-1.028155 -1.706275,-1.385273 -1.148882,-0.613418 -2.944909,-1.593826 -5.384726,-2.951356 -2.471449,-1.372917 -4.743163,-2.644132 -6.812422,-3.812905 -2.061262,-1.168768 -4.572074,-2.622589 -7.518862,-4.35772 -1.101762,-0.654925 -2.229887,-1.367992 -3.349376,-2.11995 -1.167911,-0.786723 -2.216561,-1.514662 -3.143101,-2.194809 -0.03173,-0.02348 -0.07035,-0.03713 -0.103763,-0.05966 -0.291586,-0.204495 -0.598019,-0.390992 -0.927013,-0.540976 l -0.02556,-0.01076 c -0.0064,-0.0033 -0.01199,-0.007 -0.01741,-0.0085 l -1.156292,-0.520388 -1.031537,-0.465973 c -0.737464,-0.32712 -1.39574,-0.659603 -1.958547,-0.992944 -0.212241,-0.12358 -0.513326,-0.3307 -0.911678,-0.614118 -0.609739,-0.43551 -1.108781,-0.765209 -1.485774,-0.999232 l -2.401964,-1.70526 c -1.344383,-0.95569 -3.015332,-1.297118 -4.605606,-0.943304 -0.977572,0.214509 -1.869124,0.677616 -2.597909,1.331691 L 41.40464,11.882998 C 41.273065,11.246641 41.044598,10.644652 40.731098,10.095789 40.089099,8.9718025 39.093754,8.0691945 37.881196,7.5582993 36.106707,6.8115949 34.261846,5.8736899 32.398676,4.7737293 30.461708,3.6306861 28.676807,2.4257566 27.087987,1.1861145 25.749835,0.14333507 24.037886,-0.26987404 22.392175,0.05688268 20.745963,0.38276353 19.323232,1.415905 18.488934,2.8932517 l -1.085897,1.9228561 c -0.764185,1.3600971 -0.966625,2.9816727 -0.555197,4.5059835 0.134099,0.500776 0.33181,0.9769177 0.586209,1.4223107 0.2124,0.371861 0.463712,0.719847 0.749942,1.034966 l -7.940616,14.0579 c -0.7162977,-0.162064 -1.4662018,-0.188965 -2.2071527,-0.06819 -1.718389,0.281515 -3.220349,1.331947 -4.0917095,2.866406 l -1.0844333,1.921418 c -0.8243191,1.456817 -0.9907257,3.205478 -0.4715958,4.81435 0.1314584,0.390151 0.2981875,0.762054 0.4991875,1.113956 0.6239999,1.092474 1.5696407,1.968063 2.7237192,2.488576 1.8546936,0.82712 2.9319336,1.313108 3.2477884,1.466092 0.2545858,0.125709 0.6822784,0.374497 1.3067132,0.747742 0.474872,0.27147 1.01286,0.633272 1.647595,1.084539 0.733637,0.504432 1.614687,1.146929 2.645709,1.911998 1.338537,1.003455 3.029272,1.383524 4.651468,1.049598 1.619697,-0.338303 3.016695,-1.362496 3.840443,-2.814311 l 1.066469,-1.882898 c 0.251523,-0.445611 0.445615,-0.921837 0.573123,-1.410598 l 2.151745,10.089185 c 0.131144,0.6156 0.358964,1.200458 0.664964,1.736191 0.5115,0.895513 1.247045,1.653273 2.147992,2.182616 l 4.218234,2.487106 c 0.608943,0.360105 1.25827,0.572925 1.911937,0.693338 0.548375,0.672072 1.234969,1.226133 2.029995,1.606032 1.197503,0.574539 2.498345,1.229999 3.889598,1.951746 1.392396,0.72575 2.690608,1.444605 3.86864,2.139055 1.648411,0.972036 3.825681,2.287844 6.530825,3.953897 2.73271,1.680312 5.522338,3.41028 8.36753,5.189523 2.94717,1.845783 4.606965,2.877683 4.975028,3.090072 2.627097,1.535331 5.957495,0.788136 7.673971,-1.722729 l 4.667908,-6.825595 c 0.928946,-1.355639 1.249741,-3.052004 0.888843,-4.673849 -0.133924,-0.59647 -0.353958,-1.163695 -0.649958,-1.68192 -0.2215,-0.387794 -0.481339,-0.742708 -0.779802,-1.069246 l 0.253245,-0.446607 0.245139,-0.434838 0.273792,-0.486622 0.325665,-0.579864 0.34716,-0.612241 0.436238,-0.776281 0.490386,-0.867443 0.248473,-0.430973 c 0.323248,-0.02407 0.645558,-0.09778 0.966582,-0.17775 l -3.72112,23.233218 c -0.22267,1.388159 0.0515,2.778163 0.718499,3.945919 0.506001,0.885884 1.238974,1.645145 2.147206,2.177239 l 5.479537,3.233336 c 2.147539,1.267823 4.835478,1.029752 6.706283,-0.598921 l 0.41865,-0.361041 -0.103427,0.608927 c -0.234662,1.409164 0.03523,2.815672 0.715231,4.006191 0.499996,0.875376 1.231898,1.638762 2.14428,2.180115 l 5.205022,3.066733 c 2.15938,1.272567 4.8636,1.025003 6.73969,-0.618422 l 15.96278,-14.031032 -2.15308,6.590483 c -2.77483,0.673944 -5.04378,2.371563 -6.42773,4.836599 -1.50615,2.653081 -1.73408,5.774048 -0.65102,8.760228 0.22562,0.62699 0.50922,1.2435 0.83421,1.81249 1.095,1.91709 2.72391,3.51091 4.81232,4.74321 l 0.61585,0.36425 c 0.3008,0.17462 0.61129,0.32022 0.93821,0.44457 0.23466,0.0848 0.62141,0.25596 1.17328,0.49414 1.97438,0.87866 4.26122,0.95637 6.78227,0.23211 2.67727,-0.76875 4.78814,-2.40913 6.10585,-4.74213 z M 22.621317,32.964056 l 0.476865,-0.843164 0.360554,1.693243 c -0.24901,-0.309917 -0.529257,-0.594563 -0.837419,-0.850079 z m 46.54327,9.842022 0.267075,-0.474457 1.026647,0.605372 c -0.160289,0.113379 -0.313285,0.229515 -0.459285,0.357905 L 69.16462,42.806103 z m -7.405521,13.104728 0.510159,-0.898826 0.730437,0.432739 c -0.08248,0.365604 -0.126751,0.738091 -0.138391,1.113711 l -1.102215,-0.647626 z"
   inkscape:connector-curvature="0" />
	<g
   id="g253"
   transform="matrix(0.5,0.87537922,-0.85677152,0.5,84.919986,-38.256022)">
		<path
   id="path255"
   style="fill:#ec2627"
   d="m 40.692,59.057 c -0.156,0.023 -0.363,0.107 -0.617,0.254 -0.408,0.236 -0.908,0.736 -1.501,1.506 -0.594,0.767 -0.352,2.081 0.724,3.943 l 12.617,21.856 -4.241,2.449 -31.055,-10.098 8.85,15.327 c 0.763,1.324 1.571,2.148 2.422,2.474 0.85,0.323 1.861,0.148 3.032,-0.528 0.458,-0.265 0.803,-0.464 1.033,-0.597 l 1.08,1.873 c -1.245,0.549 -2.296,1.027 -3.146,1.434 -0.852,0.408 -1.572,0.78 -2.158,1.12 -0.866,0.5 -1.439,0.85 -1.716,1.04 -0.279,0.2 -1.278,0.92 -2.993,2.19 l -1.103,-1.91 c 0.14,-0.05 0.341,-0.15 0.595,-0.3 0.484,-0.28 0.919,-0.67 1.304,-1.181 0.384,-0.51 0.556,-1.079 0.52,-1.703 -0.037,-0.624 -0.379,-1.497 -1.027,-2.618 L 13.979,79.422 C 13.347,78.328 12.766,77.6 12.235,77.244 11.706,76.887 11.126,76.746 10.491,76.825 9.8565,76.903 9.2842,77.089 8.7744,77.383 8.5459,77.515 8.3662,77.619 8.2392,77.692 L 7.1357,75.781 c 2.1104,-0.878 4.2463,-1.943 6.4123,-3.193 2.115,-1.22 4.043,-2.502 5.781,-3.846 L 43.278,76.774 37.1,66.074 C 36.336,64.75 35.544,63.922 34.727,63.596 33.909,63.27 32.929,63.438 31.782,64.1 c -0.255,0.147 -0.447,0.258 -0.573,0.33 -0.128,0.074 -0.319,0.184 -0.573,0.332 l -1.104,-1.912 2.846,-1.337 c 0.307,-0.177 0.779,-0.415 1.42,-0.718 0.641,-0.302 1.114,-0.541 1.42,-0.718 0.764,-0.442 1.561,-0.97 2.395,-1.586 0.834,-0.617 1.477,-1.091 1.932,-1.421 l 1.147,1.987 z"
   inkscape:connector-curvature="0" />
		<path
   id="path257"
   style="fill:#ec2627"
   d="m 80.123,60.801 3.513,7.5 c -0.355,0.207 -2.015,1.114 -4.976,2.722 -2.961,1.608 -5.852,3.192 -8.673,4.752 -2.819,1.559 -5.069,2.824 -6.75,3.795 -1.299,0.751 -2.641,1.576 -4.025,2.476 -1.382,0.9 -2.643,1.747 -3.78,2.54 l -1.104,-1.912 c 0.168,-0.061 0.315,-0.128 0.442,-0.204 0.128,-0.073 0.256,-0.146 0.382,-0.219 1.835,-1.06 2.187,-2.571 1.054,-4.533 L 45.925,59.91 c -1.134,-1.962 -2.541,-2.458 -4.223,-1.488 -0.296,0.137 -0.494,0.235 -0.596,0.293 -0.101,0.06 -0.24,0.173 -0.414,0.342 L 39.545,57.07 c 1.103,-0.501 2.32,-1.085 3.651,-1.751 1.33,-0.667 2.595,-1.346 3.793,-2.037 3.007,-1.736 5.536,-3.223 7.591,-4.46 2.054,-1.237 4.292,-2.596 6.715,-4.08 2.423,-1.483 4.19,-2.582 5.308,-3.294 l 4.244,6.467 -1.95,1.126 -0.649,-0.951 c -1.168,-1.432 -2.225,-2.188 -3.172,-2.27 -0.948,-0.082 -2.401,0.444 -4.364,1.576 l -7.452,4.303 6.156,10.663 7.071,-4.082 c 1.349,-0.78 2.185,-1.524 2.505,-2.236 0.32,-0.711 0.179,-1.589 -0.425,-2.634 l -0.375,-0.65 1.872,-1.082 0.663,1.147 0.573,0.994 0.508,0.879 0.441,0.765 0.353,0.612 0.331,0.572 0.287,0.498 0.243,0.419 c 0.265,0.458 0.525,0.912 0.783,1.358 0.257,0.445 0.511,0.884 0.761,1.319 l 0.219,0.381 -1.91,1.103 -0.381,-0.748 c -0.646,-1.122 -1.347,-1.726 -2.098,-1.82 -0.753,-0.092 -1.832,0.267 -3.239,1.079 l -7.057,4.075 4.413,7.643 c 0.898,1.554 1.664,2.395 2.297,2.522 0.634,0.126 1.816,-0.311 3.549,-1.311 l 5.121,-2.957 c 1.629,-0.941 2.635,-1.954 3.012,-3.036 0.375,-1.086 0.215,-2.496 -0.482,-4.232 -0.024,-0.157 -0.086,-0.325 -0.19,-0.504 -0.101,-0.178 -0.183,-0.318 -0.242,-0.42 l 2.104,-1.215 z"
   inkscape:connector-curvature="0" />
		<path
   id="path259"
   style="fill:#ec2627"
   d="m 115.4,15.724 -0.29,0.214 c -1.31,0.928 -1.83,2.147 -1.57,3.659 l 0.22,1.09 0.16,1.078 5.03,26.149 -5.24,3.023 -13.03,-10.922 3.1,16.659 -5.507,3.178 -20.609,-16.985 -0.479,-0.388 c -1.293,-0.886 -2.437,-1.409 -3.428,-1.568 -0.992,-0.158 -1.909,0.005 -2.748,0.49 l -1.081,-1.873 c 2.618,-1.172 5.304,-2.552 8.054,-4.141 2.471,-1.427 4.768,-2.922 6.889,-4.487 l 1.103,1.912 c -0.193,0.078 -0.328,0.138 -0.404,0.182 -0.051,0.03 -0.268,0.247 -0.645,0.651 -0.377,0.404 -0.324,1.026 0.161,1.866 0.191,0.33 0.447,0.657 0.769,0.979 l 1.885,1.504 11.928,10.094 -2.03,-10.436 -4.48,-3.61 -1.274,-1.057 c -0.709,-0.58 -1.31,-0.958 -1.802,-1.135 -0.492,-0.177 -0.965,-0.246 -1.418,-0.206 -0.454,0.039 -0.887,0.144 -1.299,0.312 l -1.08,-1.872 c 1.389,-0.598 2.777,-1.264 4.17,-1.999 1.392,-0.737 2.879,-1.56 4.459,-2.472 2.929,-1.693 5.646,-3.43 8.146,-5.215 l 1.11,1.91 -0.68,0.337 c -2.57,1.487 -3.47,2.903 -2.69,4.249 0.17,0.304 0.47,0.629 0.87,0.972 l 1.34,1.103 11.76,9.981 -3.15,-15.803 -0.22,-0.951 -0.21,-0.841 c -0.08,-0.328 -0.18,-0.607 -0.31,-0.836 -0.62,-1.069 -1.79,-1.102 -3.53,-0.102 l -0.49,0.287 -1.08,-1.873 c 0.74,-0.295 1.57,-0.654 2.48,-1.078 0.91,-0.423 1.77,-0.872 2.59,-1.342 0.59,-0.338 1.19,-0.736 1.81,-1.196 0.61,-0.458 1.18,-0.901 1.68,-1.327 l 1.06,1.836 z"
   inkscape:connector-curvature="0" />
		<path
   id="path261"
   style="fill:#ec2627"
   d="m 129.8,8.9863 5.72,17.492 -4.25,2.449 -12.11,-13.746 c -0.07,-0.062 -0.13,-0.137 -0.18,-0.227 -0.05,-0.088 -0.09,-0.146 -0.1,-0.171 -0.5,-0.866 -0.47,-1.879 0.1,-3.041 0.57,-1.161 1.7,-2.227 3.38,-3.1982 0.69,-0.3979 1.51,-0.7627 2.47,-1.0977 0.96,-0.334 1.9,-0.3999 2.82,-0.1982 0.91,0.2026 1.56,0.6338 1.94,1.2974 0.11,0.1783 0.18,0.3253 0.21,0.441 z m 1.49,27.116 c 0.66,1.147 1.7,1.846 3.12,2.096 1.42,0.252 2.92,-0.079 4.5,-0.991 0.18,-0.103 0.36,-0.213 0.57,-0.331 0.25,-0.213 0.69,-0.548 1.3,-1.008 0.62,-0.458 1.08,-1.304 1.39,-2.534 0.31,-1.231 0.18,-2.344 -0.39,-3.338 -0.58,-0.993 -1.56,-1.675 -2.94,-2.047 -1.39,-0.371 -2.94,-0.065 -4.64,0.92 -1.64,0.942 -2.7,2.09 -3.19,3.443 -0.49,1.356 -0.4,2.618 0.28,3.79 z"
   inkscape:connector-curvature="0" />
	</g>
</g>
<metadata
   id="metadata3018"><rdf:RDF><cc:Work><dc:format>image/svg+xml</dc:format><dc:type
         rdf:resource="http://purl.org/dc/dcmitype/StillImage" /><cc:license
         rdf:resource="http://creativecommons.org/licenses/publicdomain/" /><dc:publisher><cc:Agent
           rdf:about="http://openclipart.org/"><dc:title>Openclipart</dc:title></cc:Agent></dc:publisher><dc:title>&quot;NEW!&quot; Exclamation</dc:title><dc:date>2007-11-09T16:23:54</dc:date><dc:description>Red outlined text that says &quot;NEW!&quot;</dc:description><dc:source>https://openclipart.org/detail/8109/new!-exclamation-by-carbonnyc</dc:source><dc:creator><cc:Agent><dc:title>CarbonNYC</dc:title></cc:Agent></dc:creator><dc:subject><rdf:Bag><rdf:li>drop shadow</rdf:li><rdf:li>dropshadow</rdf:li><rdf:li>exclamation</rdf:li><rdf:li>exclamation point</rdf:li><rdf:li>logo</rdf:li><rdf:li>modern</rdf:li><rdf:li>new</rdf:li><rdf:li>red</rdf:li><rdf:li>shadow</rdf:li><rdf:li>shadowed</rdf:li><rdf:li>text</rdf:li></rdf:Bag></dc:subject></cc:Work><cc:License
       rdf:about="http://creativecommons.org/licenses/publicdomain/"><cc:permits
         rdf:resource="http://creativecommons.org/ns#Reproduction" /><cc:permits
         rdf:resource="http://creativecommons.org/ns#Distribution" /><cc:permits
         rdf:resource="http://creativecommons.org/ns#DerivativeWorks" /></cc:License></rdf:RDF></metadata></svg>