<?xml version="1.0" encoding="UTF-8" standalone="no"?>
<!-- Created with Inkscape (http://www.inkscape.org/) -->

<svg
   xmlns:dc="http://purl.org/dc/elements/1.1/"
   xmlns:cc="http://creativecommons.org/ns#"
   xmlns:rdf="http://www.w3.org/1999/02/22-rdf-syntax-ns#"
   xmlns:svg="http://www.w3.org/2000/svg"
   xmlns="http://www.w3.org/2000/svg"
   xmlns:sodipodi="http://sodipodi.sourceforge.net/DTD/sodipodi-0.dtd"
   xmlns:inkscape="http://www.inkscape.org/namespaces/inkscape"
   width="280"
   height="280"
   viewBox="0 0 280 280.00001"
   id="svg3369"
   version="1.1"
   inkscape:version="0.91 r13725"
   sodipodi:docname="xgame-logo-280.svg">
  <title
     id="title3397">XGame logo</title>
  <defs
     id="defs3371" />
  <sodipodi:namedview
     id="base"
     pagecolor="#ffffff"
     bordercolor="#666666"
     borderopacity="1.0"
     inkscape:pageopacity="0.0"
     inkscape:pageshadow="2"
     inkscape:zoom="1.979899"
     inkscape:cx="133.43444"
     inkscape:cy="140"
     inkscape:document-units="px"
     inkscape:current-layer="layer1"
     showgrid="false"
     inkscape:window-width="1366"
     inkscape:window-height="706"
     inkscape:window-x="-8"
     inkscape:window-y="-8"
     inkscape:window-maximized="1"
     units="px"
     fit-margin-top="3"
     fit-margin-left="3"
     fit-margin-right="3"
     fit-margin-bottom="3" />
  <metadata
     id="metadata3374">
    <rdf:RDF>
      <cc:Work
         rdf:about="">
        <dc:format>image/svg+xml</dc:format>
        <dc:type
           rdf:resource="http://purl.org/dc/dcmitype/StillImage" />
        <dc:title>XGame logo</dc:title>
      </cc:Work>
    </rdf:RDF>
  </metadata>
  <g
     inkscape:label="Vrstva 1"
     inkscape:groupmode="layer"
     id="layer1"
     transform="translate(2.5906142,1.4510754)">
    <path
       d="m 188.65638,253.98161 c 12.4692,8.4712 25.8124,17.2144 38.362,20.2544 -12.5484,-3.0388 -25.8904,-11.7832 -38.362,-20.2544 z m -28.7852,-180.2232 c 8.1072,0 14.6824,8.7672 14.6824,19.576 0,10.8104 -6.5752,19.576 -14.6824,19.576 -8.1068,0 -14.6824,-8.7656 -14.6824,-19.576 0,-10.8088 6.5756,-19.576 14.6824,-19.576 z m 72.778,-0.8368 c -19.5944,-22.7372 -48.5948,-37.136 -80.9576,-37.136 -59.003597,0 -106.852385,47.8488 -106.852385,106.8512 0,18.0136 4.4684,34.9932 12.3452,49.8832 29.121188,-26.4872 55.960795,-38.226 82.136785,-50.2324 -12.8068,-16.814 -29.84199,-33.5676 -55.661197,-50.5392 35.968407,10.3032 58.773597,24.3824 74.947197,41.3664 24.4708,-12.316 48.6968,-28.1732 74.042,-60.1932 z M 61.588395,200.07041 c 0.6692,1.0496 1.3528,2.0816 2.058,3.1056 -0.704,-1.024 -1.388,-2.0568 -2.058,-3.1056 z m 2.396,3.5932 c 0.2664,0.3808 0.5328,0.7628 0.804,1.1404 l -0.804,-1.1404 z m 1.8176,2.5316 c 0.262,0.354 0.5284,0.7044 0.7948,1.0548 l 0.4888,0.6392 0.8096,1.0376 c 0.356,0.45 0.7152,0.8948 1.078,1.3392 0.2792,0.3412 0.562388,0.6792 0.845988,1.0168 z m 4.535188,5.7012 c 0.964,1.1304 1.9504,2.2404 2.9596,3.33 -1.0092,-1.0896 -1.9956,-2.1996 -2.9596,-3.33 z m 3.3472,3.7472 c 0.3276,0.3504 0.6564,0.6996 0.9888,1.0444 0.3968,0.4128 0.796,0.8208 1.1984,1.2268 0.3108,0.3132 0.626,0.6236 0.9412,0.9332 l 0.5316,0.5192 0.9868,0.9468 c 0.416,0.3936 0.8356,0.7836 1.2572,1.1704 0.3256,0.298 0.6556,0.5916 0.9844,0.8856 z m 7.4076,7.1876 c 0.3536,0.312 0.7096,0.6236 1.068,0.9308 l -1.068,-0.9308 z m 129.984397,8.6424 0.7156,-0.4832 -0.7156,0.4832 z m 0.746,-0.5036 c 0.432,-0.2948 0.8596,-0.5928 1.2868,-0.8932 -0.426,0.3004 -0.856,0.5984 -1.2868,0.8932 z m 1.406,-0.976 c 0.4036,-0.2848 0.804,-0.5728 1.2032,-0.8628 -0.4004,0.29 -0.7996,0.578 -1.2032,0.8628 z m 1.38,-0.99 c 0.374,-0.2732 0.746,-0.55 1.1156,-0.8276 -0.3696,0.2776 -0.7416,0.5544 -1.1156,0.8276 z m 5.354,-4.1736 c 0.3652,-0.3028 0.7268,-0.61 1.0872,-0.9176 -0.3604,0.3088 -0.722,0.6148 -1.0872,0.9176 z m 8.5628,-7.9472 c 0.3436,-0.3552 0.6848,-0.7112 1.0228,-1.0716 l -1.0228,1.0716 z m 1.152,-1.2112 c 0.7224,-0.7696 1.432,-1.55 2.1308,-2.3424 -0.6988,0.7912 -1.4096,1.5728 -2.1308,2.3424 z m 2.2872,-2.5204 c 0.3104,-0.3528 0.618,-0.7088 0.924,-1.0648 l -0.924,1.0648 z m 1.16,-1.3424 c 0.282,-0.3324 0.5632,-0.6644 0.8412,-1.0004 l -0.8412,1.0004 z m 2.0792,-2.522 c 0.3084,-0.3852 0.6148,-0.7744 0.9184,-1.1644 -0.3024,0.39 -0.61,0.7792 -0.9184,1.1644 z m 0.9208,-1.1676 c 0.3196,-0.4116 0.636,-0.8232 0.95,-1.2404 -0.3128,0.416 -0.6312,0.83 -0.95,1.2404 z m 3.1636,-4.2916 c 1.2256,-1.7508 2.4016,-3.538 3.5228,-5.3632 -1.1212,1.8252 -2.2972,3.6124 -3.5228,5.3632 z m 3.5364,-5.3848 c 0.524,-0.8528 1.0328,-1.7156 1.5328,-2.5828 -0.5,0.8684 -1.0088,1.73 -1.5328,2.5828 z m 1.7268,-2.9164 c 0.262,-0.4592 0.5204,-0.9208 0.7756,-1.3844 -0.2564,0.4636 -0.5136,0.9252 -0.7756,1.3844 z"
       style="fill:#800000"
       id="path3365"
       inkscape:connector-curvature="0" />
    <path
       d="m 211.07638,231.47001 c 28.6176,-19.1712 47.4668,-51.808 47.4668,-88.8332 0,-21.838 -6.5616,-42.1432 -17.812,-59.066 1.2712,-7.3452 1.4604,-14.3228 -0.2392,-20.4684 l -0.9468,1.2224 c -16.612,48.6256 -39.2292,71.9612 -66.368,87.2652 15.2412,23.2236 23.8256,50.3932 37.8992,79.88 z"
       style="fill:#000000;fill-rule:evenodd"
       id="path3367"
       inkscape:connector-curvature="0" />
    <path
       d="m 177.37478,246.37121 c 15.5972,10.2412 33.6348,24.2124 50.232,28.0008 -42.9336,-40.0592 -53.392,-76.7576 -75.1668,-112.7272 -27.114,11.4964 -57.790397,19.7336 -90.851585,38.4264 18.979588,29.7128 52.237995,49.4184 90.103185,49.4184 8.8556,0 17.4548,-1.0864 25.6832,-3.1184 z m 94.1828,-147.6768 c 0.5272,1.7652 1.008,3.5308 1.4616,5.3008 -22.0004,-63.8284 -90.6784,-99.4951999 -155.95999,-79.97 -66.989595,20.0352 -105.066796,90.6088 -85.030395,157.5972 19.524,65.282 87.045195,103.096 152.471185,86.4384 -1.728,0.592 -3.4708,1.1636 -5.2364,1.6908 C 106.55399,291.49881 29.953995,250.16881 8.2063946,177.45881 -13.540005,104.74921 27.789195,28.14801 100.49918,6.4016101 173.20998,-15.345986 249.80998,25.98321 271.55758,98.69441 Z"
       style="fill:#ff6600;fill-rule:evenodd"
       id="path3369"
       inkscape:connector-curvature="0" />
  </g>
</svg>
