<?xml version="1.0" encoding="UTF-8" standalone="no"?>
<!-- Created with Inkscape (http://www.inkscape.org/) -->

<svg
   xmlns:dc="http://purl.org/dc/elements/1.1/"
   xmlns:cc="http://creativecommons.org/ns#"
   xmlns:rdf="http://www.w3.org/1999/02/22-rdf-syntax-ns#"
   xmlns:svg="http://www.w3.org/2000/svg"
   xmlns="http://www.w3.org/2000/svg"
   xmlns:sodipodi="http://sodipodi.sourceforge.net/DTD/sodipodi-0.dtd"
   xmlns:inkscape="http://www.inkscape.org/namespaces/inkscape"
   width="65mm"
   height="65mm"
   viewBox="0 0 230.31496 230.31496"
   id="svg3362"
   version="1.1"
   inkscape:version="0.91 r13725"
   sodipodi:docname="xgame-logo.svg">
  <title
     id="title3382">Logo XGAME</title>
  <defs
     id="defs3364" />
  <sodipodi:namedview
     id="base"
     pagecolor="#ffffff"
     bordercolor="#666666"
     borderopacity="1.0"
     inkscape:pageopacity="0.0"
     inkscape:pageshadow="2"
     inkscape:zoom="0.98994949"
     inkscape:cx="21.341992"
     inkscape:cy="113.01697"
     inkscape:document-units="px"
     inkscape:current-layer="layer1"
     showgrid="false"
     fit-margin-top="0"
     fit-margin-left="0"
     fit-margin-right="0"
     fit-margin-bottom="0"
     inkscape:window-width="1366"
     inkscape:window-height="706"
     inkscape:window-x="-8"
     inkscape:window-y="-8"
     inkscape:window-maximized="1" />
  <metadata
     id="metadata3367">
    <rdf:RDF>
      <cc:Work
         rdf:about="">
        <dc:format>image/svg+xml</dc:format>
        <dc:type
           rdf:resource="http://purl.org/dc/dcmitype/StillImage" />
        <dc:title>Logo XGAME</dc:title>
      </cc:Work>
    </rdf:RDF>
  </metadata>
  <g
     inkscape:label="Vrstva 1"
     inkscape:groupmode="layer"
     id="layer1"
     transform="translate(-15.664177,2.3042385)">
    <path
       d="m 170.50172,198.17542 c 9.3519,6.3534 19.3593,12.9108 28.7715,15.1908 -9.4113,-2.2791 -19.4178,-8.8374 -28.7715,-15.1908 z M 148.91283,63.008018 c 6.0804,0 11.01179,6.5754 11.01179,14.682 0,8.1078 -4.93139,14.682 -11.01179,14.682 -6.0801,0 -11.01181,-6.5742 -11.01181,-14.682 0,-8.1066 4.93171,-14.682 11.01181,-14.682 z m 54.58349,-0.6276 c -14.6958,-17.0529 -36.4461,-27.852 -60.71819,-27.852 -44.252708,0 -80.139308,35.8866 -80.139308,80.138402 0,13.5102 3.3513,26.2449 9.2589,37.4124 21.8409,-19.8654 41.970598,-28.6695 61.602598,-37.6743 -9.6051,-12.6105 -22.3815,-25.175702 -41.745898,-37.904402 26.976298,7.7274 44.080198,18.2868 56.210408,31.024802 18.35309,-9.237002 36.52259,-21.129902 55.53149,-45.144902 z M 75.200722,157.74202 c 0.5019,0.7872 1.0146,1.5612 1.5435,2.3292 -0.528,-0.768 -1.041,-1.5426 -1.5435,-2.3292 z m 1.797,2.6949 c 0.1998,0.2856 0.3996,0.5721 0.603,0.8553 l -0.603,-0.8553 z m 1.3632,1.8987 c 0.1965,0.2655 0.3963,0.5283 0.5961,0.7911 l 0.3666,0.4794 0.6072,0.7782 c 0.267,0.3375 0.5364,0.6711 0.8085,1.0044 0.2094,0.2559 0.4218,0.5094 0.6345,0.7626 z m 3.4014,4.2759 c 0.723,0.8478 1.4628,1.6803 2.2197,2.4975 -0.7569,-0.8172 -1.4967,-1.6497 -2.2197,-2.4975 z m 2.5104,2.8104 c 0.2457,0.2628 0.4923,0.5247 0.7416,0.7833 0.2976,0.3096 0.597,0.6156 0.8988,0.9201 0.2331,0.2349 0.4695,0.4677 0.7059,0.6999 l 0.3987,0.3894 0.7401,0.7101 c 0.312,0.2952 0.6267,0.5877 0.9429,0.8778 0.2442,0.2235 0.4917,0.4437 0.7383,0.6642 z m 5.5557,5.3907 c 0.2652,0.234 0.5322,0.4677 0.801,0.6981 l -0.801,-0.6981 z m 97.488298,6.4818 0.5367,-0.3624 -0.5367,0.3624 z m 0.5595,-0.3777 c 0.324,-0.2211 0.6447,-0.4446 0.9651,-0.6699 -0.3195,0.2253 -0.642,0.4488 -0.9651,0.6699 z m 1.0545,-0.732 c 0.3027,-0.2136 0.603,-0.4296 0.9024,-0.6471 -0.3003,0.2175 -0.5997,0.4335 -0.9024,0.6471 z m 1.035,-0.7425 c 0.2805,-0.2049 0.5595,-0.4125 0.8367,-0.6207 -0.2772,0.2082 -0.5562,0.4158 -0.8367,0.6207 z m 4.0155,-3.1302 c 0.2739,-0.2271 0.5451,-0.4575 0.8154,-0.6882 -0.2703,0.2316 -0.5415,0.4611 -0.8154,0.6882 z m 6.4221,-5.9604 c 0.2577,-0.2664 0.5136,-0.5334 0.7671,-0.8037 l -0.7671,0.8037 z m 0.864,-0.9084 c 0.5418,-0.5772 1.074,-1.1625 1.5981,-1.7568 -0.5241,0.5934 -1.0572,1.1796 -1.5981,1.7568 z m 1.7154,-1.8903 c 0.2328,-0.2646 0.4635,-0.5316 0.693,-0.7986 l -0.693,0.7986 z m 0.87,-1.0068 c 0.2115,-0.2493 0.4224,-0.4983 0.6309,-0.7503 l -0.6309,0.7503 z m 1.5594,-1.8915 c 0.2313,-0.2889 0.4611,-0.5808 0.6888,-0.8733 -0.2268,0.2925 -0.4575,0.5844 -0.6888,0.8733 z m 0.6906,-0.8757 c 0.2397,-0.3087 0.477,-0.6174 0.7125,-0.9303 -0.2346,0.312 -0.4734,0.6225 -0.7125,0.9303 z m 2.3727,-3.2187 c 0.9192,-1.3131 1.8012,-2.6535 2.6421,-4.0224 -0.8409,1.3689 -1.7229,2.7093 -2.6421,4.0224 z m 2.6523,-4.0386 c 0.393,-0.6396 0.7746,-1.2867 1.1496,-1.9371 -0.375,0.6513 -0.7566,1.2975 -1.1496,1.9371 z m 1.2951,-2.1873 c 0.1965,-0.3444 0.3903,-0.6906 0.5817,-1.0383 -0.1923,0.3477 -0.3852,0.6939 -0.5817,1.0383 z"
       style="fill:#800000"
       id="path3365"
       inkscape:connector-curvature="0" />
    <path
       d="m 187.31672,181.29172 c 21.4632,-14.3784 35.6001,-38.856 35.6001,-66.6249 0,-16.378502 -4.9212,-31.607402 -13.359,-44.299502 0.9534,-5.5089 1.0953,-10.7421 -0.1794,-15.3513 l -0.7101,0.9168 c -12.459,36.4692 -29.4219,53.970902 -49.776,65.448902 11.4309,17.4177 17.8692,37.7949 28.4244,59.91 z"
       style="fill:#000000;fill-rule:evenodd"
       id="path3367"
       inkscape:connector-curvature="0" />
    <path
       d="m 162.04052,192.46762 c 11.6979,7.6809 25.2261,18.1593 37.674,21.0006 -32.2002,-30.0444 -40.044,-57.5682 -56.37509,-84.5454 -20.33551,8.6223 -43.342808,14.8002 -68.138708,28.8198 14.2347,22.2846 39.178498,37.0638 67.577408,37.0638 6.6417,0 13.0911,-0.8148 19.26239,-2.3388 z m 70.6371,-110.757602 c 0.3954,1.3239 0.756,2.6481 1.0962,3.9756 -16.5003,-47.8713 -68.0088,-74.6214 -116.97,-59.9775 -50.242198,15.0264 -78.800098,67.9566 -63.772798,118.197902 14.643,48.9615 65.283898,77.322 114.353398,64.8288 -1.296,0.444 -2.6031,0.8727 -3.9273,1.2681 -54.5322,16.3104 -111.982198,-14.6871 -128.292898,-69.2196 -16.3098,-54.532202 14.6871,-111.983102 69.219598,-128.292902 54.5331,-16.3106997 111.9831,14.6862 128.2938,69.2196 z"
       style="fill:#ff6600;fill-rule:evenodd"
       id="path3369"
       inkscape:connector-curvature="0" />
    <path
       d="m 208.90232,55.251518 c -20.9853,28.8768 -40.8531,42.165 -60.93749,52.273802 -12.13021,-12.738002 -29.23411,-23.297402 -56.210408,-31.024802 19.364398,12.7287 32.140798,25.293902 41.745898,37.904402 -22.8576,10.4847 -46.392298,20.6901 -72.513898,48.4095 0.507,0.9135 1.0257,1.8174 1.5597,2.7093 29.6379,-19.7979 57.038398,-26.5296 80.793308,-36.6009 18.92969,31.269 26.45399,63.2769 73.72499,99.0879 -33.8934,-40.023 -39.0357,-77.4708 -58.1721,-106.629 20.4807,-11.5494 37.5294,-29.195702 50.01,-66.130202 z m -59.98949,7.7565 c 6.0804,0 11.01179,6.5754 11.01179,14.682 0,8.1078 -4.93139,14.682 -11.01179,14.682 -6.0801,0 -11.01181,-6.5742 -11.01181,-14.682 0,-8.1066 4.93171,-14.682 11.01181,-14.682 z"
       style="fill:#ffffff;fill-rule:evenodd"
       id="path3371"
       inkscape:connector-curvature="0" />
  </g>
</svg>
